<?xml version="1.0" standalone="no"?><!DOCTYPE svg PUBLIC "-//W3C//DTD SVG 1.1//EN" "http://www.w3.org/Graphics/SVG/1.1/DTD/svg11.dtd"><svg t="1749364528868" class="icon" viewBox="0 0 1024 1024" version="1.1" xmlns="http://www.w3.org/2000/svg" p-id="5537" xmlns:xlink="http://www.w3.org/1999/xlink" width="200" height="200"><path d="M865.28 474.24a202.976 202.976 0 0 1-202.912-202.912 210.912 210.912 0 0 1 10.112-63.808 202.784 202.784 0 1 0 234.144 262.144 170.176 170.176 0 0 1-41.312 4.576z" fill="#EDA915" p-id="5538"></path><path d="M817.984 676.704a161.824 161.824 0 0 0-323.2 0v153.344h163.424a157.44 157.44 0 0 0 159.776-153.344z" fill="#EAEAEA" p-id="5539"></path><path d="M716.544 669.344a161.408 161.408 0 0 0-56.48-122.112c0.448-4.576 0.928-9.184 0.928-13.76a161.6 161.6 0 0 0-323.2 0 15.616 15.616 0 0 0 0.448 4.576 149.952 149.952 0 0 0-67.04-15.616 153.6 153.6 0 0 0-5.056 307.2v0.448h295.648v-0.448a161.12 161.12 0 0 0 154.752-160.288z" fill="#F7F7F7" p-id="5540"></path></svg>