<?xml version="1.0" standalone="no"?><!DOCTYPE svg PUBLIC "-//W3C//DTD SVG 1.1//EN" "http://www.w3.org/Graphics/SVG/1.1/DTD/svg11.dtd"><svg t="1749364525856" class="icon" viewBox="0 0 1024 1024" version="1.1" xmlns="http://www.w3.org/2000/svg" p-id="5367" xmlns:xlink="http://www.w3.org/1999/xlink" width="200" height="200"><path d="M382.272 717.856a47.296 47.296 0 1 1-91.392-24.32c6.72-25.152 65.824-62.88 65.824-62.88s32.288 62.048 25.568 87.2z m290.08 12.16a50.336 50.336 0 1 1-97.248-25.984c7.136-26.816 70.016-67.2 70.016-67.2s34.4 66.336 27.232 93.184z" fill="#16A9D4" p-id="5368"></path><path d="M876.896 436.768a169.6 169.6 0 0 0-338.784 0v160.352h171.2a164.672 164.672 0 0 0 167.584-160.352z" fill="#EAEAEA" p-id="5369"></path><path d="M770.304 430.464a168.864 168.864 0 0 0-58.816-128c0.448-4.96 0.896-9.6 0.896-14.464a168.16 168.16 0 1 0-336.288 0.448 18.624 18.624 0 0 0 0.448 4.96 157.728 157.728 0 0 0-69.6-16.256 160.64 160.64 0 0 0-4.928 321.184v0.64h308.448v-0.448a168.288 168.288 0 0 0 159.84-168.064z" fill="#F7F7F7" p-id="5370"></path><path d="M528.928 731.008a48.864 48.864 0 1 1-94.432-25.12c6.944-25.984 68.032-64.992 68.032-64.992s33.312 64.128 26.4 90.112z" fill="#16A9D4" p-id="5371"></path><path d="M647.168 876.128a37.632 37.632 0 0 1-72.736-19.392c5.472-20.096 52.256-50.08 52.256-50.08s25.984 49.344 20.48 69.472z" fill="#16A9D4" p-id="5372"></path><path d="M348.32 876.128a37.632 37.632 0 0 1-72.736-19.392c5.472-20.096 52.256-50.08 52.256-50.08s25.984 49.344 20.48 69.472z" fill="#16A9D4" p-id="5373"></path><path d="M504.64 876.128a37.632 37.632 0 0 1-72.736-19.392c5.472-20.096 52.256-50.08 52.256-50.08s25.984 49.344 20.48 69.472z" fill="#16A9D4" p-id="5374"></path></svg>