<?xml version="1.0" standalone="no"?><!DOCTYPE svg PUBLIC "-//W3C//DTD SVG 1.1//EN" "http://www.w3.org/Graphics/SVG/1.1/DTD/svg11.dtd"><svg t="1749364470713" class="icon" viewBox="0 0 1024 1024" version="1.1" xmlns="http://www.w3.org/2000/svg" p-id="2505" xmlns:xlink="http://www.w3.org/1999/xlink" width="200" height="200"><path d="M871.52 710.336h-223.136a37.216 37.216 0 0 1 0-74.4h223.136a37.216 37.216 0 0 1 0 74.4z m-347.104 0H152.512a37.216 37.216 0 0 1 0-74.4h371.904a37.216 37.216 0 0 1 0 74.4zM152.512 784.8h719.008a37.184 37.184 0 1 1 0 74.368H152.512a37.184 37.184 0 1 1 0-74.368z" fill="#F7F7F7" p-id="2506"></path><path d="M821.92 239.328a37.184 37.184 0 1 1 37.12-37.184 37.184 37.184 0 0 1-37.12 37.184z m-136.352 173.568a49.6 49.6 0 1 1 48.48-49.6 49.6 49.6 0 0 1-48.48 49.6zM512 561.664a49.6 49.6 0 1 1 48.48-49.6 49.6 49.6 0 0 1-48.448 49.6z m0-297.6a49.6 49.6 0 1 1 48.48-49.6A49.6 49.6 0 0 1 512 264.064z m-173.536 148.832a49.6 49.6 0 1 1 48.48-49.6 49.6 49.6 0 0 1-48.48 49.6zM202.24 561.568a37.152 37.152 0 1 1 36.224-37.152 37.152 37.152 0 0 1-36.224 37.152zM202.016 239.232a37.152 37.152 0 1 1 37.152-37.152 37.152 37.152 0 0 1-37.152 37.152z m619.904 248.032a37.216 37.216 0 1 1-37.216 37.184 37.216 37.216 0 0 1 37.216-37.184z" fill="#BFA773" p-id="2507"></path></svg>