<?xml version="1.0" standalone="no"?><!DOCTYPE svg PUBLIC "-//W3C//DTD SVG 1.1//EN" "http://www.w3.org/Graphics/SVG/1.1/DTD/svg11.dtd"><svg t="1749364520143" class="icon" viewBox="0 0 1024 1024" version="1.1" xmlns="http://www.w3.org/2000/svg" p-id="5032" xmlns:xlink="http://www.w3.org/1999/xlink" width="200" height="200"><path d="M897.888 454.912a178.624 178.624 0 0 0-356.768 0v169.12h180.704a174.048 174.048 0 0 0 176.064-169.12z" fill="#EAEAEA" p-id="5033"></path><path d="M785.28 447.68a177.152 177.152 0 0 0-62.272-134.816c0.448-5.088 0.928-10.208 0.928-15.296a177.824 177.824 0 0 0-355.616 0 19.2 19.2 0 0 0 0.448 5.088 164.736 164.736 0 0 0-73.792-17.152 169.6 169.6 0 0 0-5.536 339.2v0.448h326.112v-0.448a177.184 177.184 0 0 0 169.728-177.024z" fill="#F7F7F7" p-id="5034"></path><path d="M719.488 903.968a54.816 54.816 0 1 1 54.816-54.816 54.784 54.784 0 0 1-54.816 54.816z" fill="#CCCCCC" p-id="5035"></path><path d="M288.352 849.152a54.816 54.816 0 1 1 54.816-54.816 54.784 54.784 0 0 1-54.816 54.816z" fill="#CCCCCC" p-id="5036"></path><path d="M520.416 776.608a54.816 54.816 0 1 1 54.816-54.816 54.784 54.784 0 0 1-54.816 54.816z" fill="#CCCCCC" p-id="5037"></path></svg>