<?xml version="1.0" standalone="no"?><!DOCTYPE svg PUBLIC "-//W3C//DTD SVG 1.1//EN" "http://www.w3.org/Graphics/SVG/1.1/DTD/svg11.dtd"><svg t="1749364489504" class="icon" viewBox="0 0 1024 1024" version="1.1" xmlns="http://www.w3.org/2000/svg" p-id="3343" xmlns:xlink="http://www.w3.org/1999/xlink" width="200" height="200"><path d="M342.176 804.352a54.944 54.944 0 0 1-106.176-28.384c7.776-29.28 76.448-73.216 76.448-73.216s37.536 72.32 29.76 101.6z m389.504 64a48.064 48.064 0 1 1-92.8-25.184c6.88-25.6 67.2-64 67.2-64s32.448 63.648 25.6 89.28z" fill="#16A9D4" p-id="3344"></path><path d="M895.52 452.448a176.448 176.448 0 0 0-352.416 0v167.072h178.496a171.616 171.616 0 0 0 173.92-167.072z" fill="#EAEAEA" p-id="3345"></path><path d="M784.32 443.68a174.528 174.528 0 0 0-61.92-133.184c0.448-5.024 0.928-10.08 0.928-15.104a176.832 176.832 0 0 0-353.632 0.448 18.72 18.72 0 0 0 0.448 5.024 164.704 164.704 0 0 0-73.376-16.928 167.552 167.552 0 0 0-5.952 335.04v0.448h324.256v-0.448a176.352 176.352 0 0 0 169.248-175.296z" fill="#F7F7F7" p-id="3346"></path><path d="M509.92 821.28a6.048 6.048 0 0 1-5.952-5.952v-163.84a5.952 5.952 0 1 1 11.904 0v163.84a6.048 6.048 0 0 1-5.952 5.952z" fill="#D8D8D8" p-id="3347"></path><path d="M509.984 693.6a4.96 4.96 0 0 1-4.128-1.824l-23.808-23.808a5.824 5.824 0 0 1 8.224-8.256l19.68 19.68 19.68-19.68a5.824 5.824 0 0 1 8.256 8.256l-23.808 23.808a5.568 5.568 0 0 1-4.096 1.824z m23.808 115.2a4.96 4.96 0 0 1-4.128-1.824l-19.68-19.68-19.68 19.68a5.824 5.824 0 0 1-8.224-8.256l23.808-23.808a5.792 5.792 0 0 1 8.256 0l23.808 23.808a5.824 5.824 0 0 1 0 8.256 8.224 8.224 0 0 1-4.224 1.952z" fill="#D8D8D8" p-id="3348"></path><path d="M580.864 779.872a6.4 6.4 0 0 1-2.752-0.928l-141.888-81.92a6.048 6.048 0 1 1 5.952-10.528l141.888 81.92a6.4 6.4 0 0 1 2.304 8.256 7.072 7.072 0 0 1-5.504 3.2z" fill="#D8D8D8" p-id="3349"></path><path d="M438.048 725.184a5.44 5.44 0 0 1-5.504-4.576 5.888 5.888 0 0 1 4.128-7.328l26.56-7.328-7.328-26.56a5.952 5.952 0 0 1 11.456-3.2l8.704 32.512a5.888 5.888 0 0 1-4.128 7.328l-32.48 8.704a1.696 1.696 0 0 1-1.376 0.448z m119.904 69.568a5.44 5.44 0 0 1-5.504-4.576l-8.704-32.512a7.904 7.904 0 0 1 0.448-4.576 7.104 7.104 0 0 1 3.648-2.752l32.512-8.704a5.952 5.952 0 0 1 3.2 11.456l-26.56 7.328 7.328 26.528a5.888 5.888 0 0 1-4.128 7.328 9.312 9.312 0 0 0-2.208 0.48z" fill="#D8D8D8" p-id="3350"></path><path d="M438.976 779.872a5.728 5.728 0 0 1-5.024-2.752 6.112 6.112 0 0 1 2.304-8.224l141.888-81.92a6.048 6.048 0 1 1 5.952 10.528l-141.888 81.92a8.928 8.928 0 0 1-3.232 0.448z" fill="#D8D8D8" p-id="3351"></path><path d="M461.408 794.304h-1.312a5.888 5.888 0 0 1-4.128-7.328l7.328-26.56-26.56-7.328a5.952 5.952 0 1 1 3.2-11.456l32.48 8.704a5.888 5.888 0 0 1 4.128 7.328l-8.704 32.512a6.912 6.912 0 0 1-6.432 4.128z m120.384-69.12h-1.376l-32.512-8.704a5.888 5.888 0 0 1-4.128-7.328l8.704-32.512a5.952 5.952 0 0 1 11.456 3.2l-7.328 26.56 26.56 7.328a5.888 5.888 0 0 1 4.128 7.328 5.504 5.504 0 0 1-5.6 4.16z" fill="#D8D8D8" p-id="3352"></path></svg>