<?xml version="1.0" standalone="no"?><!DOCTYPE svg PUBLIC "-//W3C//DTD SVG 1.1//EN" "http://www.w3.org/Graphics/SVG/1.1/DTD/svg11.dtd"><svg t="1749364467199" class="icon" viewBox="0 0 1024 1024" version="1.1" xmlns="http://www.w3.org/2000/svg" p-id="2341" xmlns:xlink="http://www.w3.org/1999/xlink" width="200" height="200"><path d="M592.16 120.096a391.68 391.68 0 0 1 127.168 21.088 389.568 389.568 0 0 0-164.16 60.992l-0.544 0.352a392.224 392.224 0 0 1 328.128 516.8 389.6 389.6 0 0 0-61.376-164.768A392.16 392.16 0 0 1 304.64 882.752a389.568 389.568 0 0 0 164.16-60.992l0.608-0.384A392.224 392.224 0 0 1 141.184 304.64a389.6 389.6 0 0 0 61.376 164.736A391.936 391.936 0 0 1 592.16 120.096zM512 378.4A133.6 133.6 0 1 0 645.6 512 133.6 133.6 0 0 0 512 378.4z" fill="#F7F7F7" p-id="2342"></path></svg>