<?xml version="1.0" standalone="no"?><!DOCTYPE svg PUBLIC "-//W3C//DTD SVG 1.1//EN" "http://www.w3.org/Graphics/SVG/1.1/DTD/svg11.dtd"><svg t="1749364476445" class="icon" viewBox="0 0 1024 1024" version="1.1" xmlns="http://www.w3.org/2000/svg" p-id="2833" xmlns:xlink="http://www.w3.org/1999/xlink" width="200" height="200"><path d="M342.08 807.936a55.648 55.648 0 0 1-107.488-28.8c7.872-29.664 77.376-74.144 77.376-74.144s37.984 73.248 30.112 102.944z" fill="#16A9D4" p-id="2834"></path><path d="M897.888 454.912a178.624 178.624 0 0 0-356.768 0v169.12h180.704a174.048 174.048 0 0 0 176.064-169.12z" fill="#EAEAEA" p-id="2835"></path><path d="M785.28 447.68a177.152 177.152 0 0 0-62.272-134.816c0.448-5.088 0.928-10.208 0.928-15.296a177.824 177.824 0 0 0-355.616 0 19.2 19.2 0 0 0 0.448 5.088 164.736 164.736 0 0 0-73.792-17.152 169.6 169.6 0 0 0-5.536 339.2v0.448h326.112v-0.448a177.184 177.184 0 0 0 169.728-177.024z" fill="#F7F7F7" p-id="2836"></path><path d="M524.32 508.736l-15.296 183.008h-124.16z" fill="#EDA915" p-id="2837"></path><path d="M465.568 868.128l15.296-183.008h124.16z" fill="#EDA915" p-id="2838"></path><path d="M719.488 903.968a54.816 54.816 0 1 1 54.816-54.816 54.784 54.784 0 0 1-54.816 54.816z" fill="#CCCCCC" p-id="2839"></path></svg>