<?xml version="1.0" standalone="no"?><!DOCTYPE svg PUBLIC "-//W3C//DTD SVG 1.1//EN" "http://www.w3.org/Graphics/SVG/1.1/DTD/svg11.dtd"><svg t="1749364522721" class="icon" viewBox="0 0 1024 1024" version="1.1" xmlns="http://www.w3.org/2000/svg" p-id="5200" xmlns:xlink="http://www.w3.org/1999/xlink" width="200" height="200"><path d="M895.296 452.672a177.472 177.472 0 0 0-354.4 0v168h179.52a172.8 172.8 0 0 0 174.88-168z" fill="#EAEAEA" p-id="5201"></path><path d="M783.456 445.472a176 176 0 0 0-61.856-133.952c0.448-5.056 0.928-10.112 0.928-15.2a176.64 176.64 0 0 0-353.28 0 18.976 18.976 0 0 0 0.448 5.056 163.648 163.648 0 0 0-73.312-17.024 168.512 168.512 0 0 0-5.504 336.928v0.448h323.968v-0.416a176 176 0 0 0 168.608-175.84z" fill="#F7F7F7" p-id="5202"></path><path d="M524.192 506.144l-15.2 181.792h-123.36z" fill="#EDA915" p-id="5203"></path><path d="M465.856 863.136l15.2-181.792h123.36z" fill="#EDA915" p-id="5204"></path></svg>