<?xml version="1.0" standalone="no"?><!DOCTYPE svg PUBLIC "-//W3C//DTD SVG 1.1//EN" "http://www.w3.org/Graphics/SVG/1.1/DTD/svg11.dtd"><svg t="1750321267506" class="icon" viewBox="0 0 1024 1024" version="1.1" xmlns="http://www.w3.org/2000/svg" p-id="5995" xmlns:xlink="http://www.w3.org/1999/xlink" width="200" height="200"><path d="M512 1024a512 512 0 1 1 512-512 512 512 0 0 1-512 512z m0-960a448 448 0 1 0 448 448A448 448 0 0 0 512 64z m160 640a32.256 32.256 0 0 1-22.144-8.96l-0.384 0.32-137.6-151.68-137.28 150.72v0.32l-0.384 0.32A32 32 0 0 1 320 672a31.552 31.552 0 0 1 7.296-19.52l-0.448-0.32 141.92-156.16-138.272-152.64a14.24 14.24 0 0 1-2.4-2.56l-0.96-1.28A31.712 31.712 0 0 1 320 320a32 32 0 0 1 54.144-23.04l0.416-0.32 137.6 151.68 137.28-150.72v-0.32l0.384-0.32a32 32 0 0 1 54.08 23.04 31.552 31.552 0 0 1-7.296 19.52l0.448 0.32-141.92 156.16 138.272 152.64a14.24 14.24 0 0 1 2.4 2.56l0.96 1.28a31.712 31.712 0 0 1 7.264 19.52A32 32 0 0 1 672 704z" fill="#ffffff" p-id="5996"></path></svg>